<svg width="54" height="50" viewBox="0 0 54 50" fill="none" xmlns="http://www.w3.org/2000/svg">
<path fill-rule="evenodd" clip-rule="evenodd" d="M8.68869 9.46992C5.14402 14.3861 3.92961 20.8571 5.5006 27.235C8.66879 26.4251 12.3398 29.4519 13.2479 33.5491L14.9232 41.1076C16.0934 46.3873 12.3267 51.8711 7.48725 49.3816C3.94413 47.5589 1.22485 44.2897 0.316748 40.1925C-0.591357 36.0953 0.502963 32.0328 2.96143 28.9617C3.45624 28.3436 4.00318 27.8926 4.57987 27.5898C2.8992 20.9111 4.14928 14.0914 7.89444 8.89724C11.7287 3.57942 18.1533 0 26.6298 0C35.1066 0 41.5048 3.57982 45.3257 8.89791C49.0719 14.112 50.3163 20.9631 48.6582 27.6646C49.1847 27.9651 49.6845 28.3926 50.1401 28.9617C52.5985 32.0328 53.6929 36.0953 52.7848 40.1925C52.4371 41.7612 51.8239 43.2085 51.0007 44.4996L51.0006 44.5001L51.0002 44.5004C49.6732 46.5814 47.8006 48.2568 45.6143 49.3816C40.7748 51.8711 37.0081 46.3873 38.1783 41.1076L39.8536 33.5491C40.7755 29.3895 44.5453 26.3331 47.7454 27.2747C49.2822 20.8829 48.0695 14.3951 44.5305 9.46925C40.9041 4.42183 34.8098 0.979182 26.6298 0.979182C18.4492 0.979182 12.3282 4.42224 8.68869 9.46992ZM50.3599 31.0019L44.1778 48.9015C43.5579 49.0625 42.9935 49.0549 42.4896 48.9326C41.7168 48.745 41.0013 48.266 40.4085 47.538C39.2097 46.0657 38.6106 43.6821 39.137 41.307L40.8122 33.7485C41.3387 31.3734 42.895 29.4381 44.612 28.5724C45.461 28.1444 46.3164 27.9921 47.1006 28.1284C47.8734 28.2627 48.6611 28.6909 49.3692 29.5755C49.7324 30.0292 50.0634 30.5059 50.3599 31.0019ZM8.92555 48.902L2.74267 31.0001C3.0389 30.5047 3.36953 30.0287 3.7323 29.5755C4.44042 28.6909 5.22815 28.2627 6.00086 28.1284C6.78513 27.9921 7.6405 28.1444 8.4895 28.5724C10.2065 29.4381 11.7629 31.3734 12.2893 33.7485L13.9645 41.307C14.4909 43.6821 13.8918 46.0657 12.693 47.538C12.1002 48.266 11.3848 48.745 10.6119 48.9326C10.1085 49.0548 9.5447 49.0625 8.92555 48.902Z" fill="white"/>
</svg>
