<svg width="109" height="104" viewBox="0 0 109 104" fill="none" xmlns="http://www.w3.org/2000/svg">
<path fill-rule="evenodd" clip-rule="evenodd" d="M18.5426 20.6349C11.3912 30.5532 8.93343 43.6232 12.1136 56.52C18.4692 55.2847 25.6432 61.3661 27.4518 69.5259L30.8735 84.9643C33.2636 95.7483 25.5701 106.949 15.6854 101.864C8.44855 98.1413 2.89437 91.464 1.03954 83.0953C-0.815282 74.7266 1.41989 66.4289 6.44137 60.1561C7.32147 59.0567 8.28232 58.2161 9.29373 57.6089C5.77651 43.7904 8.34306 29.6513 16.1092 18.8804C24.0402 7.88068 37.3177 0.5 54.782 0.5C72.2478 0.5 85.4714 7.88191 93.375 18.8824C101.146 29.6984 103.699 43.9078 100.223 57.7761C101.137 58.3674 102.006 59.1543 102.808 60.1561C107.829 66.4289 110.064 74.7266 108.21 83.0953C106.355 91.464 100.801 98.1413 93.5636 101.864C83.6789 106.949 75.9854 95.7483 78.3756 84.9643L81.7973 69.5259C83.6336 61.2409 91.0013 55.0985 97.4275 56.5821C100.531 43.662 98.0749 30.5655 90.9386 20.6329C83.6309 10.4616 71.3385 3.5 54.782 3.5C38.2242 3.5 25.8769 10.4629 18.5426 20.6349ZM18.8127 99.906L6.75852 65.0045C7.36572 63.9708 8.04899 62.9789 8.80315 62.0368C10.1153 60.3976 11.5182 59.6651 12.8334 59.4366C14.184 59.2019 15.7107 59.4544 17.2877 60.2495C20.5 61.8691 23.4993 65.556 24.5146 70.1369L27.9364 85.5753C28.9517 90.1562 27.779 94.7109 25.5362 97.4654C24.4351 98.8176 23.1499 99.655 21.8189 99.9781C20.9497 100.189 19.9484 100.209 18.8127 99.906ZM90.4364 99.906L102.491 65.0045C101.883 63.9708 101.2 62.9789 100.446 62.0368C99.1337 60.3976 97.7309 59.6651 96.4157 59.4366C95.0651 59.2019 93.5384 59.4544 91.9614 60.2495C88.749 61.8691 85.7497 65.556 84.7344 70.1369L81.3127 85.5753C80.2974 90.1562 81.47 94.7109 83.7129 97.4654C84.814 98.8176 86.0992 99.655 87.4302 99.9781C88.2994 100.189 89.3007 100.209 90.4364 99.906Z" fill="white"/>
</svg>
