<svg width="20" height="20" viewBox="0 0 20 20" fill="none" xmlns="http://www.w3.org/2000/svg">
<g clip-path="url(#clip0)">
<path d="M16.5221 10.7062C16.5221 10.3769 16.2551 10.1099 15.9256 10.1099C15.5962 10.1099 15.3292 10.3769 15.3292 10.7062C15.3292 13.6237 12.9558 15.997 10.0383 15.997C7.12098 15.997 4.74762 13.6237 4.74762 10.7062C4.74762 10.3769 4.48059 10.1099 4.15115 10.1099C3.82172 10.1099 3.55469 10.3769 3.55469 10.7062C3.55469 14.0804 6.14533 16.8601 9.44185 17.1622V18.7679H7.2284C6.89896 18.7679 6.63193 19.0349 6.63193 19.3643C6.63193 19.6938 6.89896 19.9608 7.2284 19.9608H12.8484C13.1777 19.9608 13.4447 19.6938 13.4447 19.3643C13.4447 19.0349 13.1777 18.7679 12.8484 18.7679H10.6348V17.1622C13.9314 16.8602 16.5221 14.0804 16.5221 10.7062Z" fill="white"/>
<path d="M10.0377 14.5255C12.1436 14.5255 13.8569 12.8122 13.8569 10.7064V3.77991C13.8569 1.6742 12.1436 -0.0390625 10.0377 -0.0390625C7.93201 -0.0390625 6.21875 1.6742 6.21875 3.77991V10.7064C6.21875 12.8122 7.93201 14.5255 10.0377 14.5255Z" fill="white"/>
</g>
<defs>
<clipPath id="clip0">
<rect width="20" height="20" fill="white"/>
</clipPath>
</defs>
</svg>
