{
    "asset" : {
        "generator" : "Khronos glTF Blender I/O v1.3.48",
        "version" : "2.0"
    },
    "scene" : 0,
    "scenes" : [
        {
            "name" : "Scene",
            "nodes" : [
                0
            ]
        }
    ],
    "nodes" : [
        {
            "mesh" : 0,
            "name" : "ponton_gauche",
            "scale" : [
                0.009999999776482582,
                0.009999999776482582,
                0.009999999776482582
            ]
        }
    ],
    "meshes" : [
        {
            "name" : "Mesh",
            "primitives" : [
                {
                    "attributes" : {
                        "POSITION" : 0,
                        "NORMAL" : 1,
                        "TEXCOORD_0" : 2
                    },
                    "indices" : 3
                }
            ]
        }
    ],
    "accessors" : [
        {
            "bufferView" : 0,
            "componentType" : 5126,
            "count" : 484,
            "max" : [
                623.5064086914062,
                188.5464630126953,
                153.28717041015625
            ],
            "min" : [
                -623.5064086914062,
                -188.54644775390625,
                -146.2747039794922
            ],
            "type" : "VEC3"
        },
        {
            "bufferView" : 1,
            "componentType" : 5126,
            "count" : 484,
            "type" : "VEC3"
        },
        {
            "bufferView" : 2,
            "componentType" : 5126,
            "count" : 484,
            "type" : "VEC2"
        },
        {
            "bufferView" : 3,
            "componentType" : 5123,
            "count" : 1320,
            "type" : "SCALAR"
        }
    ],
    "bufferViews" : [
        {
            "buffer" : 0,
            "byteLength" : 5808,
            "byteOffset" : 0
        },
        {
            "buffer" : 0,
            "byteLength" : 5808,
            "byteOffset" : 5808
        },
        {
            "buffer" : 0,
            "byteLength" : 3872,
            "byteOffset" : 11616
        },
        {
            "buffer" : 0,
            "byteLength" : 2640,
            "byteOffset" : 15488
        }
    ],
    "buffers" : [
        {
            "byteLength" : 18128,
            "uri" : "data:application/octet-stream;base64,"
        }
    ]
}
