{
    "asset" : {
        "generator" : "Khronos glTF Blender I/O v1.3.48",
        "version" : "2.0"
    },
    "scene" : 0,
    "scenes" : [
        {
            "name" : "Scene",
            "nodes" : [
                0
            ]
        }
    ],
    "nodes" : [
        {
            "mesh" : 0,
            "name" : "Touffe_d_herbe",
            "scale" : [
                0.009999999776482582,
                0.009999999776482582,
                0.009999999776482582
            ]
        }
    ],
    "meshes" : [
        {
            "name" : "Mesh",
            "primitives" : [
                {
                    "attributes" : {
                        "POSITION" : 0,
                        "NORMAL" : 1,
                        "TEXCOORD_0" : 2
                    },
                    "indices" : 3
                }
            ]
        }
    ],
    "accessors" : [
        {
            "bufferView" : 0,
            "componentType" : 5126,
            "count" : 1064,
            "max" : [
                113.9643783569336,
                81.95962524414062,
                100.25995635986328
            ],
            "min" : [
                -120.22257232666016,
                -53.90926742553711,
                -120.45640563964844
            ],
            "type" : "VEC3"
        },
        {
            "bufferView" : 1,
            "componentType" : 5126,
            "count" : 1064,
            "type" : "VEC3"
        },
        {
            "bufferView" : 2,
            "componentType" : 5126,
            "count" : 1064,
            "type" : "VEC2"
        },
        {
            "bufferView" : 3,
            "componentType" : 5123,
            "count" : 2346,
            "type" : "SCALAR"
        }
    ],
    "bufferViews" : [
        {
            "buffer" : 0,
            "byteLength" : 12768,
            "byteOffset" : 0
        },
        {
            "buffer" : 0,
            "byteLength" : 12768,
            "byteOffset" : 12768
        },
        {
            "buffer" : 0,
            "byteLength" : 8512,
            "byteOffset" : 25536
        },
        {
            "buffer" : 0,
            "byteLength" : 4692,
            "byteOffset" : 34048
        }
    ],
    "buffers" : [
        {
            "byteLength" : 38740,
            "uri" : "data:application/octet-stream;base64,"
        }
    ]
}
