{
    "asset" : {
        "generator" : "Khronos glTF Blender I/O v1.3.48",
        "version" : "2.0"
    },
    "scene" : 0,
    "scenes" : [
        {
            "name" : "Scene",
            "nodes" : [
                0,
                1
            ]
        }
    ],
    "nodes" : [
        {
            "mesh" : 0,
            "name" : "Brindilles",
            "scale" : [
                0.009999999776482582,
                0.014234255068004131,
                0.009999999776482582
            ]
        },
        {
            "mesh" : 1,
            "name" : "Petales",
            "scale" : [
                0.009999999776482582,
                0.009999999776482582,
                0.009999999776482582
            ],
            "translation" : [
                0,
                0.4991309642791748,
                0
            ]
        }
    ],
    "materials" : [
        {
            "doubleSided" : true,
            "emissiveFactor" : [
                0,
                0,
                0
            ],
            "name" : "Material.002",
            "pbrMetallicRoughness" : {
                "baseColorTexture" : {
                    "index" : 0,
                    "texCoord" : 0
                },
                "metallicFactor" : 0,
                "roughnessFactor" : 0.5
            }
        }
    ],
    "meshes" : [
        {
            "name" : "Mesh",
            "primitives" : [
                {
                    "attributes" : {
                        "POSITION" : 0,
                        "NORMAL" : 1,
                        "TEXCOORD_0" : 2,
                        "COLOR_0" : 3
                    },
                    "indices" : 4
                }
            ]
        },
        {
            "name" : "Mesh.001",
            "primitives" : [
                {
                    "attributes" : {
                        "POSITION" : 5,
                        "NORMAL" : 6,
                        "TEXCOORD_0" : 7
                    },
                    "indices" : 8,
                    "material" : 0
                }
            ]
        }
    ],
    "textures" : [
        {
            "source" : 0
        }
    ],
    "images" : [
        {
            "bufferView" : 9,
            "mimeType" : "image/png",
            "name" : "TexturesCom_Flowers0048_1_masked_S"
        }
    ],
    "accessors" : [
        {
            "bufferView" : 0,
            "componentType" : 5126,
            "count" : 1002,
            "max" : [
                290.84967041015625,
                187.38511657714844,
                252.91688537597656
            ],
            "min" : [
                -339.36407470703125,
                -4.914461612701416,
                -327.6412353515625
            ],
            "type" : "VEC3"
        },
        {
            "bufferView" : 1,
            "componentType" : 5126,
            "count" : 1002,
            "type" : "VEC3"
        },
        {
            "bufferView" : 2,
            "componentType" : 5126,
            "count" : 1002,
            "type" : "VEC2"
        },
        {
            "bufferView" : 3,
            "componentType" : 5126,
            "count" : 1002,
            "type" : "VEC4"
        },
        {
            "bufferView" : 4,
            "componentType" : 5123,
            "count" : 2088,
            "type" : "SCALAR"
        },
        {
            "bufferView" : 5,
            "componentType" : 5126,
            "count" : 207,
            "max" : [
                264.7986755371094,
                99.8328857421875,
                219.79481506347656
            ],
            "min" : [
                -318.3055114746094,
                22.87849235534668,
                -274.6826171875
            ],
            "type" : "VEC3"
        },
        {
            "bufferView" : 6,
            "componentType" : 5126,
            "count" : 207,
            "type" : "VEC3"
        },
        {
            "bufferView" : 7,
            "componentType" : 5126,
            "count" : 207,
            "type" : "VEC2"
        },
        {
            "bufferView" : 8,
            "componentType" : 5123,
            "count" : 552,
            "type" : "SCALAR"
        }
    ],
    "bufferViews" : [
        {
            "buffer" : 0,
            "byteLength" : 12024,
            "byteOffset" : 0
        },
        {
            "buffer" : 0,
            "byteLength" : 12024,
            "byteOffset" : 12024
        },
        {
            "buffer" : 0,
            "byteLength" : 8016,
            "byteOffset" : 24048
        },
        {
            "buffer" : 0,
            "byteLength" : 16032,
            "byteOffset" : 32064
        },
        {
            "buffer" : 0,
            "byteLength" : 4176,
            "byteOffset" : 48096
        },
        {
            "buffer" : 0,
            "byteLength" : 2484,
            "byteOffset" : 52272
        },
        {
            "buffer" : 0,
            "byteLength" : 2484,
            "byteOffset" : 54756
        },
        {
            "buffer" : 0,
            "byteLength" : 1656,
            "byteOffset" : 57240
        },
        {
            "buffer" : 0,
            "byteLength" : 1104,
            "byteOffset" : 58896
        },
        {
            "buffer" : 0,
            "byteLength" : 1317870,
            "byteOffset" : 60000
        }
    ],
    "buffers" : [
        {
            "byteLength" : 1377872,
            "uri" : "data:application/octet-stream;base64,"
        }
    ]
}
