{
    "asset" : {
        "generator" : "Khronos glTF Blender I/O v1.3.48",
        "version" : "2.0"
    },
    "scene" : 0,
    "scenes" : [
        {
            "name" : "Scene",
            "nodes" : [
                0,
                1
            ]
        }
    ],
    "nodes" : [
        {
            "mesh" : 0,
            "name" : "Brindilles",
            "scale" : [
                0.009999999776482582,
                0.009999999776482582,
                0.009999999776482582
            ]
        },
        {
            "mesh" : 1,
            "name" : "Petales",
            "scale" : [
                0.009999999776482582,
                0.009999999776482582,
                0.009999999776482582
            ]
        }
    ],
    "materials" : [
        {
            "doubleSided" : true,
            "emissiveFactor" : [
                0,
                0,
                0
            ],
            "name" : "Material.002",
            "pbrMetallicRoughness" : {
                "baseColorTexture" : {
                    "index" : 0,
                    "texCoord" : 0
                },
                "metallicFactor" : 0,
                "roughnessFactor" : 0.5
            }
        }
    ],
    "meshes" : [
        {
            "name" : "Mesh",
            "primitives" : [
                {
                    "attributes" : {
                        "POSITION" : 0,
                        "NORMAL" : 1,
                        "TEXCOORD_0" : 2
                    },
                    "indices" : 3
                }
            ]
        },
        {
            "name" : "Mesh.001",
            "primitives" : [
                {
                    "attributes" : {
                        "POSITION" : 4,
                        "NORMAL" : 5,
                        "TEXCOORD_0" : 6
                    },
                    "indices" : 7,
                    "material" : 0
                }
            ]
        }
    ],
    "textures" : [
        {
            "source" : 0
        }
    ],
    "images" : [
        {
            "bufferView" : 8,
            "mimeType" : "image/png",
            "name" : "TexturesCom_Flowers0048_1_masked_S"
        }
    ],
    "accessors" : [
        {
            "bufferView" : 0,
            "componentType" : 5126,
            "count" : 1416,
            "max" : [
                495.06707763671875,
                187.38511657714844,
                425.6065979003906
            ],
            "min" : [
                -497.5901794433594,
                -36.848514556884766,
                -593.4443359375
            ],
            "type" : "VEC3"
        },
        {
            "bufferView" : 1,
            "componentType" : 5126,
            "count" : 1416,
            "type" : "VEC3"
        },
        {
            "bufferView" : 2,
            "componentType" : 5126,
            "count" : 1416,
            "type" : "VEC2"
        },
        {
            "bufferView" : 3,
            "componentType" : 5123,
            "count" : 2898,
            "type" : "SCALAR"
        },
        {
            "bufferView" : 4,
            "componentType" : 5126,
            "count" : 198,
            "max" : [
                409.7279052734375,
                120.43563079833984,
                270.4120178222656
            ],
            "min" : [
                -318.3055114746094,
                22.854219436645508,
                -523.80224609375
            ],
            "type" : "VEC3"
        },
        {
            "bufferView" : 5,
            "componentType" : 5126,
            "count" : 198,
            "type" : "VEC3"
        },
        {
            "bufferView" : 6,
            "componentType" : 5126,
            "count" : 198,
            "type" : "VEC2"
        },
        {
            "bufferView" : 7,
            "componentType" : 5123,
            "count" : 528,
            "type" : "SCALAR"
        }
    ],
    "bufferViews" : [
        {
            "buffer" : 0,
            "byteLength" : 16992,
            "byteOffset" : 0
        },
        {
            "buffer" : 0,
            "byteLength" : 16992,
            "byteOffset" : 16992
        },
        {
            "buffer" : 0,
            "byteLength" : 11328,
            "byteOffset" : 33984
        },
        {
            "buffer" : 0,
            "byteLength" : 5796,
            "byteOffset" : 45312
        },
        {
            "buffer" : 0,
            "byteLength" : 2376,
            "byteOffset" : 51108
        },
        {
            "buffer" : 0,
            "byteLength" : 2376,
            "byteOffset" : 53484
        },
        {
            "buffer" : 0,
            "byteLength" : 1584,
            "byteOffset" : 55860
        },
        {
            "buffer" : 0,
            "byteLength" : 1056,
            "byteOffset" : 57444
        },
        {
            "buffer" : 0,
            "byteLength" : 1063591,
            "byteOffset" : 58500
        }
    ],
    "buffers" : [
        {
            "byteLength" : 1122092,
            "uri" : "data:application/octet-stream;base64,"
        }
    ]
}
