{
	"asset":{
		"generator":"Created using the official Cinema 4D glTF Exporter 1.000x284978",
		"version":"2.0"
	},
	"scenes":[{
		"nodes":[0]
	}],
	"nodes":[{
		"name":"Hair",
		"rotation":[0.0,
		0.0,
		0.0,
		-1.0],
		"translation":[0.0,
		0.0,
		0.0],
		"scale":[1.0,
		1.0,
		1.0],
		"mesh":0
	}],
	"meshes":[{
		"name":"Hair",
		"primitives":[{
			"attributes":{
				"POSITION":1
			},
			"indices":0
		}]
	}],
	"accessors":[{
		"count":360,
		"bufferView":0,
		"type":"SCALAR",
		"componentType":5123,
		"byteOffset":0,
		"min":[0],
		"max":[159]
	},
	{
		"count":160,
		"bufferView":1,
		"type":"VEC3",
		"componentType":5126,
		"byteOffset":0,
		"min":[-198.09959411621095,
		-0.15838176012039185,
		-174.79025268554688],
		"max":[195.42672729492188,
		99.24676513671875,
		199.76290893554688]
	}],
	"bufferViews":[{
		"buffer":0,
		"byteOffset":0,
		"byteLength":720,
		"target":34963
	},
	{
		"buffer":0,
		"byteOffset":720,
		"byteLength":1920,
		"target":34962
	}],
	"buffers":[{
		"uri":"data:application/octet-stream;base64,",
		"byteLength":2640
	}]
}