{
    "asset" : {
        "generator" : "Khronos glTF Blender I/O v1.3.48",
        "version" : "2.0"
    },
    "scene" : 0,
    "scenes" : [
        {
            "name" : "Scene",
            "nodes" : [
                0
            ]
        }
    ],
    "nodes" : [
        {
            "mesh" : 0,
            "name" : "Morph_Tag",
            "scale" : [
                0.009999999776482582,
                0.009999999776482582,
                0.009999999776482582
            ]
        }
    ],
    "meshes" : [
        {
            "extras" : {
                "targetNames" : [
                    "Colline",
                    "Vall\ufffde",
                    "Montagnes"
                ]
            },
            "name" : "Mesh",
            "primitives" : [
                {
                    "attributes" : {
                        "POSITION" : 0,
                        "NORMAL" : 1,
                        "TEXCOORD_0" : 2
                    },
                    "indices" : 3,
                    "targets" : [
                        {
                            "POSITION" : 4,
                            "NORMAL" : 5
                        },
                        {
                            "POSITION" : 6,
                            "NORMAL" : 7
                        },
                        {
                            "POSITION" : 8,
                            "NORMAL" : 9
                        }
                    ]
                }
            ],
            "weights" : [
                0,
                0,
                0
            ]
        }
    ],
    "accessors" : [
        {
            "bufferView" : 0,
            "componentType" : 5126,
            "count" : 2609,
            "max" : [
                19044.564453125,
                552.6705932617188,
                19078.666015625
            ],
            "min" : [
                -19119.982421875,
                -242.42910766601562,
                -19100.623046875
            ],
            "type" : "VEC3"
        },
        {
            "bufferView" : 1,
            "componentType" : 5126,
            "count" : 2609,
            "type" : "VEC3"
        },
        {
            "bufferView" : 2,
            "componentType" : 5126,
            "count" : 2609,
            "type" : "VEC2"
        },
        {
            "bufferView" : 3,
            "componentType" : 5123,
            "count" : 15018,
            "type" : "SCALAR"
        },
        {
            "bufferView" : 4,
            "componentType" : 5126,
            "count" : 2609,
            "max" : [
                49.982421875,
                3133.702880859375,
                516.0068359375
            ],
            "min" : [
                -190.23681640625,
                -1374.59716796875,
                -52.65771484375
            ],
            "type" : "VEC3"
        },
        {
            "bufferView" : 5,
            "componentType" : 5126,
            "count" : 2609,
            "type" : "VEC3"
        },
        {
            "bufferView" : 6,
            "componentType" : 5126,
            "count" : 2609,
            "max" : [
                1093.3310546875,
                13098.7890625,
                1069.3466796875
            ],
            "min" : [
                -1255.53515625,
                -325.4537048339844,
                -995.4840087890625
            ],
            "type" : "VEC3"
        },
        {
            "bufferView" : 7,
            "componentType" : 5126,
            "count" : 2609,
            "type" : "VEC3"
        },
        {
            "bufferView" : 8,
            "componentType" : 5126,
            "count" : 2609,
            "max" : [
                1832.673828125,
                15683.6728515625,
                1532.83203125
            ],
            "min" : [
                -1764.21484375,
                -439.789306640625,
                -1647.5498046875
            ],
            "type" : "VEC3"
        },
        {
            "bufferView" : 9,
            "componentType" : 5126,
            "count" : 2609,
            "type" : "VEC3"
        }
    ],
    "bufferViews" : [
        {
            "buffer" : 0,
            "byteLength" : 31308,
            "byteOffset" : 0
        },
        {
            "buffer" : 0,
            "byteLength" : 31308,
            "byteOffset" : 31308
        },
        {
            "buffer" : 0,
            "byteLength" : 20872,
            "byteOffset" : 62616
        },
        {
            "buffer" : 0,
            "byteLength" : 30036,
            "byteOffset" : 83488
        },
        {
            "buffer" : 0,
            "byteLength" : 31308,
            "byteOffset" : 113524
        },
        {
            "buffer" : 0,
            "byteLength" : 31308,
            "byteOffset" : 144832
        },
        {
            "buffer" : 0,
            "byteLength" : 31308,
            "byteOffset" : 176140
        },
        {
            "buffer" : 0,
            "byteLength" : 31308,
            "byteOffset" : 207448
        },
        {
            "buffer" : 0,
            "byteLength" : 31308,
            "byteOffset" : 238756
        },
        {
            "buffer" : 0,
            "byteLength" : 31308,
            "byteOffset" : 270064
        }
    ],
    "buffers" : [
        {
            "byteLength" : 301372,
            "uri" : "data:application/octet-stream;base64,"
        }
    ]
}
