{
    "asset" : {
        "generator" : "Khronos glTF Blender I/O v1.3.48",
        "version" : "2.0"
    },
    "scene" : 0,
    "scenes" : [
        {
            "name" : "Scene",
            "nodes" : [
                0
            ]
        }
    ],
    "nodes" : [
        {
            "mesh" : 0,
            "name" : "Environnement",
            "scale" : [
                0.009999999776482582,
                0.009999999776482582,
                0.009999999776482582
            ],
            "translation" : [
                -0.5309896469116211,
                0,
                0
            ]
        }
    ],
    "meshes" : [
        {
            "extras" : {
                "targetNames" : [
                    "Vallee",
                    "Collines",
                    "Montagnes"
                ]
            },
            "name" : "Mesh",
            "primitives" : [
                {
                    "attributes" : {
                        "POSITION" : 0,
                        "NORMAL" : 1,
                        "TEXCOORD_0" : 2,
                        "COLOR_0" : 3,
                        "COLOR_1" : 4,
                        "COLOR_2" : 5,
                        "COLOR_3" : 6,
                        "COLOR_4" : 7,
                        "COLOR_5" : 8,
                        "COLOR_6" : 9,
                        "COLOR_7" : 10
                    },
                    "indices" : 11,
                    "targets" : [
                        {
                            "POSITION" : 12,
                            "NORMAL" : 13
                        },
                        {
                            "POSITION" : 14,
                            "NORMAL" : 15
                        },
                        {
                            "POSITION" : 16,
                            "NORMAL" : 17
                        }
                    ]
                }
            ],
            "weights" : [
                0,
                0,
                1
            ]
        }
    ],
    "accessors" : [
        {
            "bufferView" : 0,
            "componentType" : 5126,
            "count" : 2601,
            "max" : [
                19044.564453125,
                552.6705932617188,
                19078.666015625
            ],
            "min" : [
                -19119.982421875,
                -242.42910766601562,
                -19100.623046875
            ],
            "type" : "VEC3"
        },
        {
            "bufferView" : 1,
            "componentType" : 5126,
            "count" : 2601,
            "type" : "VEC3"
        },
        {
            "bufferView" : 2,
            "componentType" : 5126,
            "count" : 2601,
            "type" : "VEC2"
        },
        {
            "bufferView" : 3,
            "componentType" : 5126,
            "count" : 2601,
            "type" : "VEC4"
        },
        {
            "bufferView" : 4,
            "componentType" : 5126,
            "count" : 2601,
            "type" : "VEC4"
        },
        {
            "bufferView" : 5,
            "componentType" : 5126,
            "count" : 2601,
            "type" : "VEC4"
        },
        {
            "bufferView" : 6,
            "componentType" : 5126,
            "count" : 2601,
            "type" : "VEC4"
        },
        {
            "bufferView" : 7,
            "componentType" : 5126,
            "count" : 2601,
            "type" : "VEC4"
        },
        {
            "bufferView" : 8,
            "componentType" : 5126,
            "count" : 2601,
            "type" : "VEC4"
        },
        {
            "bufferView" : 9,
            "componentType" : 5126,
            "count" : 2601,
            "type" : "VEC4"
        },
        {
            "bufferView" : 10,
            "componentType" : 5126,
            "count" : 2601,
            "type" : "VEC4"
        },
        {
            "bufferView" : 11,
            "componentType" : 5123,
            "count" : 15000,
            "type" : "SCALAR"
        },
        {
            "bufferView" : 12,
            "componentType" : 5126,
            "count" : 2601,
            "max" : [
                1051.33984375,
                12302.1650390625,
                807.62158203125
            ],
            "min" : [
                -1255.53515625,
                -325.4537048339844,
                -665.15625
            ],
            "type" : "VEC3"
        },
        {
            "bufferView" : 13,
            "componentType" : 5126,
            "count" : 2601,
            "type" : "VEC3"
        },
        {
            "bufferView" : 14,
            "componentType" : 5126,
            "count" : 2601,
            "max" : [
                981.6904296875,
                3205.85107421875,
                376.5263671875
            ],
            "min" : [
                -200.62841796875,
                -951.0177612304688,
                -649.94921875
            ],
            "type" : "VEC3"
        },
        {
            "bufferView" : 15,
            "componentType" : 5126,
            "count" : 2601,
            "type" : "VEC3"
        },
        {
            "bufferView" : 16,
            "componentType" : 5126,
            "count" : 2601,
            "max" : [
                1456.39453125,
                15681.259765625,
                1352.6796875
            ],
            "min" : [
                -1632.11328125,
                -361.2214660644531,
                -1461.59765625
            ],
            "type" : "VEC3"
        },
        {
            "bufferView" : 17,
            "componentType" : 5126,
            "count" : 2601,
            "type" : "VEC3"
        }
    ],
    "bufferViews" : [
        {
            "buffer" : 0,
            "byteLength" : 31212,
            "byteOffset" : 0
        },
        {
            "buffer" : 0,
            "byteLength" : 31212,
            "byteOffset" : 31212
        },
        {
            "buffer" : 0,
            "byteLength" : 20808,
            "byteOffset" : 62424
        },
        {
            "buffer" : 0,
            "byteLength" : 41616,
            "byteOffset" : 83232
        },
        {
            "buffer" : 0,
            "byteLength" : 41616,
            "byteOffset" : 124848
        },
        {
            "buffer" : 0,
            "byteLength" : 41616,
            "byteOffset" : 166464
        },
        {
            "buffer" : 0,
            "byteLength" : 41616,
            "byteOffset" : 208080
        },
        {
            "buffer" : 0,
            "byteLength" : 41616,
            "byteOffset" : 249696
        },
        {
            "buffer" : 0,
            "byteLength" : 41616,
            "byteOffset" : 291312
        },
        {
            "buffer" : 0,
            "byteLength" : 41616,
            "byteOffset" : 332928
        },
        {
            "buffer" : 0,
            "byteLength" : 41616,
            "byteOffset" : 374544
        },
        {
            "buffer" : 0,
            "byteLength" : 30000,
            "byteOffset" : 416160
        },
        {
            "buffer" : 0,
            "byteLength" : 31212,
            "byteOffset" : 446160
        },
        {
            "buffer" : 0,
            "byteLength" : 31212,
            "byteOffset" : 477372
        },
        {
            "buffer" : 0,
            "byteLength" : 31212,
            "byteOffset" : 508584
        },
        {
            "buffer" : 0,
            "byteLength" : 31212,
            "byteOffset" : 539796
        },
        {
            "buffer" : 0,
            "byteLength" : 31212,
            "byteOffset" : 571008
        },
        {
            "buffer" : 0,
            "byteLength" : 31212,
            "byteOffset" : 602220
        }
    ],
    "buffers" : [
        {
            "byteLength" : 633432,
            "uri" : "data:application/octet-stream;base64,"
        }
    ]
}
