{
    "asset" : {
        "generator" : "Khronos glTF Blender I/O v1.3.48",
        "version" : "2.0"
    },
    "scene" : 0,
    "scenes" : [
        {
            "name" : "Scene",
            "nodes" : [
                0
            ]
        }
    ],
    "nodes" : [
        {
            "mesh" : 0,
            "name" : "Cube",
            "scale" : [
                3.785140037536621,
                3.785140037536621,
                3.785140037536621
            ],
            "translation" : [
                0.27355894446372986,
                3.2265467643737793,
                0.8092690706253052
            ]
        }
    ],
    "meshes" : [
        {
            "extras" : {
                "targetNames" : [
                    "Shrinkwrap"
                ]
            },
            "name" : "Cube.002",
            "primitives" : [
                {
                    "attributes" : {
                        "POSITION" : 0,
                        "NORMAL" : 1,
                        "TEXCOORD_0" : 2
                    },
                    "indices" : 3,
                    "targets" : [
                        {
                            "POSITION" : 4,
                            "NORMAL" : 5
                        }
                    ]
                }
            ],
            "weights" : [
                0
            ]
        }
    ],
    "accessors" : [
        {
            "bufferView" : 0,
            "componentType" : 5126,
            "count" : 3068,
            "max" : [
                1.000000238418579,
                1.000000238418579,
                1.000000238418579
            ],
            "min" : [
                -1.000000238418579,
                -1.000000238418579,
                -1.000000238418579
            ],
            "type" : "VEC3"
        },
        {
            "bufferView" : 1,
            "componentType" : 5126,
            "count" : 3068,
            "type" : "VEC3"
        },
        {
            "bufferView" : 2,
            "componentType" : 5126,
            "count" : 3068,
            "type" : "VEC2"
        },
        {
            "bufferView" : 3,
            "componentType" : 5123,
            "count" : 4608,
            "type" : "SCALAR"
        },
        {
            "bufferView" : 4,
            "componentType" : 5126,
            "count" : 3068,
            "max" : [
                0.7956328988075256,
                0.7902921438217163,
                0.6755423545837402
            ],
            "min" : [
                -0.884709894657135,
                -0.9269617199897766,
                -0.9920118451118469
            ],
            "type" : "VEC3"
        },
        {
            "bufferView" : 5,
            "componentType" : 5126,
            "count" : 3068,
            "type" : "VEC3"
        }
    ],
    "bufferViews" : [
        {
            "buffer" : 0,
            "byteLength" : 36816,
            "byteOffset" : 0
        },
        {
            "buffer" : 0,
            "byteLength" : 36816,
            "byteOffset" : 36816
        },
        {
            "buffer" : 0,
            "byteLength" : 24544,
            "byteOffset" : 73632
        },
        {
            "buffer" : 0,
            "byteLength" : 9216,
            "byteOffset" : 98176
        },
        {
            "buffer" : 0,
            "byteLength" : 36816,
            "byteOffset" : 107392
        },
        {
            "buffer" : 0,
            "byteLength" : 36816,
            "byteOffset" : 144208
        }
    ],
    "buffers" : [
        {
            "byteLength" : 181024,
            "uri" : "data:application/octet-stream;base64,"
        }
    ]
}
